<svg width="14" height="13" viewBox="0 0 14 13" fill="none" xmlns="http://www.w3.org/2000/svg">
<path d="M6.99992 13L6.03325 12.1333C4.91103 11.1222 3.98325 10.25 3.24992 9.51666C2.51659 8.78333 1.93325 8.12489 1.49992 7.54133C1.06659 6.95822 0.763919 6.42222 0.591919 5.93333C0.419474 5.44444 0.333252 4.94444 0.333252 4.43333C0.333252 3.38888 0.683252 2.51666 1.38325 1.81666C2.08325 1.11666 2.95547 0.766663 3.99992 0.766663C4.5777 0.766663 5.1277 0.888885 5.64992 1.13333C6.17214 1.37777 6.62214 1.72222 6.99992 2.16666C7.3777 1.72222 7.8277 1.37777 8.34992 1.13333C8.87214 0.888885 9.42214 0.766663 9.99992 0.766663C11.0444 0.766663 11.9166 1.11666 12.6166 1.81666C13.3166 2.51666 13.6666 3.38888 13.6666 4.43333C13.6666 4.94444 13.5806 5.44444 13.4086 5.93333C13.2361 6.42222 12.9333 6.95822 12.4999 7.54133C12.0666 8.12489 11.4833 8.78333 10.7499 9.51666C10.0166 10.25 9.08881 11.1222 7.96658 12.1333L6.99992 13ZM6.99992 11.2C8.06659 10.2444 8.94436 9.42488 9.63325 8.74133C10.3221 8.05822 10.8666 7.464 11.2666 6.95866C11.6666 6.45289 11.9444 6.00266 12.0999 5.608C12.2555 5.21377 12.3333 4.82222 12.3333 4.43333C12.3333 3.76666 12.111 3.21111 11.6666 2.76666C11.2221 2.32222 10.6666 2.1 9.99992 2.1C9.4777 2.1 8.99436 2.24711 8.54992 2.54133C8.10547 2.836 7.79992 3.21111 7.63325 3.66666H6.36659C6.19992 3.21111 5.89436 2.836 5.44992 2.54133C5.00547 2.24711 4.52214 2.1 3.99992 2.1C3.33325 2.1 2.7777 2.32222 2.33325 2.76666C1.88881 3.21111 1.66659 3.76666 1.66659 4.43333C1.66659 4.82222 1.74436 5.21377 1.89992 5.608C2.05547 6.00266 2.33325 6.45289 2.73325 6.95866C3.13325 7.464 3.6777 8.05822 4.36659 8.74133C5.05547 9.42488 5.93325 10.2444 6.99992 11.2Z" fill="white"/>
</svg>
